<svg xmlns="http://www.w3.org/2000/svg" width="30.114" height="25.002" viewBox="0 0 30.114 25.002">
  <g id="Shipping_2" data-name="Shipping 2" transform="translate(238.4 -237)">
    <path id="Path_531" data-name="Path 531" d="M-233.311,257.595H-237.4V238h17.039v19.595H-226.5" fill="none" stroke="#000" stroke-linejoin="round" stroke-width="2"/>
    <path id="Path_532" data-name="Path 532" d="M-215.27,259.3h-2.13v-9.8h7.667a3.418,3.418,0,0,1,3.408,3.408v6.39h-2.13" transform="translate(-2.961 -1.703)" fill="none" stroke="#000" stroke-linejoin="round" stroke-width="2"/>
    <path id="Path_533" data-name="Path 533" d="M-211.522,248.212H-217.4V240.8h2.471a3.418,3.418,0,0,1,3.408,3.408Z" transform="translate(-2.961 -0.415)" fill="none" stroke="#000" stroke-linejoin="round" stroke-width="2"/>
    <line id="Line_70" data-name="Line 70" x2="2" transform="translate(-211.4 252.002)" fill="none" stroke="#000" stroke-linecap="round" stroke-linejoin="round" stroke-width="2"/>
    <circle id="Ellipse_154" data-name="Ellipse 154" cx="3.408" cy="3.408" r="3.408" transform="translate(-218.231 254.187)" stroke-width="2" stroke="#000" stroke-linecap="round" stroke-linejoin="round" fill="none"/>
    <circle id="Ellipse_155" data-name="Ellipse 155" cx="0.596" cy="0.596" r="0.596" transform="translate(-215.42 256.998)" stroke-width="1" stroke="#000" stroke-linecap="round" stroke-linejoin="round" fill="none"/>
    <circle id="Ellipse_156" data-name="Ellipse 156" cx="3.408" cy="3.408" r="3.408" transform="translate(-233.311 254.187)" stroke-width="2" stroke="#000" stroke-linecap="round" stroke-linejoin="round" fill="none"/>
    <circle id="Ellipse_157" data-name="Ellipse 157" cx="0.596" cy="0.596" r="0.596" transform="translate(-230.499 256.998)" stroke-width="1" stroke="#000" stroke-linecap="round" stroke-linejoin="round" fill="none"/>
  </g>
</svg>
