<svg xmlns="http://www.w3.org/2000/svg" width="22" height="24" viewBox="0 0 22 24">
  <g id="Product" transform="translate(-15 -2)">
    <path id="Path_2078" data-name="Path 2078" d="M20.138,9.633l.905-.946,3.971-1.515L27.4,8.687l-4.938,2.121v4.06L19.7,13.485Z" transform="translate(-0.524 -0.586)" fill="#f7c537"/>
    <path id="Path_2075" data-name="Path 2075" d="M36.612,6.578,26.259,2.054a.648.648,0,0,0-.518,0L15.388,6.578A.646.646,0,0,0,15,7.17V20.094a.646.646,0,0,0,.353.576l10.353,5.26A.648.648,0,0,0,26,26a.655.655,0,0,0,.291-.068l10.353-5.2A.646.646,0,0,0,37,20.159V7.17A.646.646,0,0,0,36.612,6.578ZM26,3.351,34.739,7.17,26,10.988,23.729,10l3.456-1.51a.646.646,0,0,0,0-1.184L24.408,6.093a.648.648,0,0,0-.518,0L19.341,8.078,17.265,7.17Zm-5.824,6.5,1.294.565v2.813l-1.294-.646Zm.776-1.07L24.147,7.39l1.158.5-3.187,1.4Zm-4.659-.626,2.588,1.131v3.7a.646.646,0,0,0,.358.578l2.588,1.292a.647.647,0,0,0,.936-.578v-3.3l2.588,1.131V24.3l-9.059-4.6ZM26.647,24.306V12.116l9.059-3.958v11.6Z" fill="#b92790"/>
    <path id="Path_2076" data-name="Path 2076" d="M36.946,29.2l-2.589,1.3a.646.646,0,0,0,.582,1.155l2.589-1.3a.646.646,0,1,0-.582-1.155Z" transform="translate(-6.703 -9.597)" fill="#b92790"/>
    <path id="Path_2077" data-name="Path 2077" d="M34.646,27.73a.646.646,0,0,0,.289-.068l2.553-1.283a.646.646,0,1,0-.582-1.155l-2.552,1.283a.646.646,0,0,0,.291,1.223Z" transform="translate(-6.702 -8.192)" fill="#b92790"/>
  </g>
</svg>
