<svg xmlns="http://www.w3.org/2000/svg" width="16" height="16" viewBox="0 0 16 16" fill="none">
  <g clip-path="url(#clip0_1629_67181)">
    <path d="M7.34144 0C7.3831 0 7.42476 0 7.46642 0C7.48584 0.0212579 7.51184 0.014693 7.53565 0.016256C7.55413 0.016256 7.57292 0.016256 7.5914 0.016256C7.60989 0.016256 7.62868 0.016256 7.64716 0.016256C7.67097 0.0150056 7.69696 0.0212579 7.71607 0C7.90339 0 8.09101 0 8.27833 0C8.31372 0.0300111 8.35601 0.0103163 8.39454 0.016256C8.41458 0.016256 8.43432 0.016256 8.45436 0.016256C8.47974 0.0143803 8.5073 0.022821 8.52829 0.000312616C8.54896 0.000312616 8.56995 0.000312616 8.59062 0.000312616C8.92014 0.0337625 9.25123 0.0443915 9.57762 0.112542C10.9518 0.399211 12.1746 0.991618 13.2356 1.9129C14.3325 2.86544 15.1275 4.02618 15.6014 5.40044C15.8573 6.1429 15.9977 6.906 15.9995 7.69723C16.0011 8.43969 15.9698 9.17372 15.7772 9.89555C15.4448 11.1407 14.8556 12.2442 13.9955 13.2055C12.9728 14.3481 11.7242 15.13 10.2608 15.5767C9.32735 15.8615 8.36916 15.9409 7.40315 15.8781C6.41834 15.814 5.473 15.5667 4.58185 15.1341C4.45844 15.074 4.34129 15.0606 4.20597 15.0915C2.95272 15.3791 1.69822 15.6608 0.445281 15.9487C0.329071 15.9753 0.208789 15.9694 0.0938321 16.0006C0.0731586 16.0006 0.0521719 16.0006 0.0314985 16.0006C0.00142798 15.8537 0.0418352 15.7124 0.0725321 15.5727C0.347238 14.3222 0.618499 13.0708 0.899157 11.8216C0.921083 11.724 0.906048 11.6418 0.860942 11.5527C0.452172 10.749 0.160864 9.9068 0.0405823 9.00959C0.0221014 8.87173 0.0393293 8.73043 0.000488281 8.59444C0.000488281 8.55286 0.000488281 8.51097 0.000488281 8.46939C0.0274264 8.4422 0.0127044 8.40749 0.0164632 8.37623C0.0164632 8.35685 0.0164632 8.33716 0.0164632 8.31777C0.0164632 8.29839 0.0164632 8.27901 0.0164632 8.25994C0.0148971 8.23524 0.0221014 8.20867 0.000488281 8.18835C0.000488281 7.99046 0.000488281 7.79258 0.000488281 7.59469C0.0208485 7.57594 0.0155235 7.55093 0.0164632 7.52779C0.0164632 7.50997 0.0164632 7.49184 0.0164632 7.47402C0.0152103 7.45089 0.0208485 7.42588 0.000488281 7.40744C0.000488281 7.36586 0.000488281 7.32397 0.000488281 7.28239C0.0355705 7.11983 0.0205353 6.95321 0.0443411 6.78971C0.262039 5.28665 0.870339 3.95897 1.85108 2.80417C2.80487 1.67875 3.9842 0.873137 5.37747 0.391395C5.9983 0.176628 6.63573 0.022821 7.29916 0.0159434C7.31576 0.0156308 7.32954 0.0103163 7.34144 0Z" fill="#6B7280"/>
    <path d="M8.40616 0.0275646C8.36136 0.0297572 8.31375 0.0460454 8.2793 0C8.32096 0 8.36262 0 8.40428 0C8.41399 0.00532498 8.41743 0.0112764 8.41493 0.0175411C8.4118 0.024119 8.40898 0.0275646 8.40616 0.0275646Z" fill="#404040"/>
    <path d="M0.025372 8.37697C0.0231793 8.40955 0.0541895 8.4509 0 8.46906C0 8.43774 0 8.40642 0 8.37509C0.00971026 8.36037 0.0181676 8.361 0.025372 8.37697Z" fill="#898989"/>
    <path d="M7.52756 0.0263117C7.50219 0.029444 7.47525 0.0363352 7.4668 0C7.48747 0 7.50846 0 7.52913 0C7.53978 0.00657792 7.54291 0.0125294 7.53884 0.0181676C7.53508 0.0234926 7.53132 0.0263117 7.52756 0.0263117Z" fill="#7C7C7C"/>
    <path d="M7.52783 0.0263117C7.52877 0.0175411 7.5294 0.00877056 7.5294 0C7.55007 0 7.57106 0 7.59173 0C7.60238 0.00657792 7.60551 0.0125294 7.60144 0.0178543C7.59768 0.0231793 7.59392 0.0256852 7.58985 0.0256852C7.56918 0.0259984 7.54851 0.0263117 7.52783 0.0263117Z" fill="#5D5D5D"/>
    <path d="M7.58984 0.0259984C7.59078 0.0175411 7.5911 0.00877056 7.59172 0C7.6124 0 7.63338 0 7.65406 0C7.66439 0.00657792 7.66784 0.0131558 7.66377 0.0191073C7.66001 0.0247455 7.65625 0.0278778 7.65249 0.0278778C7.63182 0.0269381 7.61083 0.0266249 7.58984 0.0259984Z" fill="#454545"/>
    <path d="M7.65283 0.0275646C7.65377 0.0184808 7.65409 0.00908379 7.6544 0C7.67507 0 7.69606 0 7.71673 0C7.70326 0.0278778 7.67946 0.0310102 7.65283 0.0275646Z" fill="#313131"/>
    <path d="M8.40577 0.0275646C8.4042 0.0184808 8.40357 0.00939702 8.40389 0C8.42456 0 8.44555 0 8.46622 0C8.47593 0.00532498 8.47938 0.0109632 8.47656 0.0172279C8.47374 0.0234926 8.47061 0.0266249 8.46747 0.0266249C8.4468 0.0266249 8.42644 0.0269381 8.40577 0.0275646Z" fill="#656565"/>
    <path d="M8.46787 0.0263117C8.46693 0.0175411 8.46631 0.00877056 8.46631 0C8.48698 0 8.50797 0 8.52864 0C8.52144 0.0385278 8.49387 0.0303837 8.46787 0.0263117Z" fill="#848484"/>
    <path d="M0 7.40625C0.0363352 7.41471 0.0297572 7.44165 0.0263117 7.46733C0.0184808 7.48299 0.00971026 7.48362 0 7.4689C0 7.44791 0 7.42724 0 7.40625Z" fill="#808080"/>
    <path d="M0 7.46861C0.00877056 7.46767 0.0175411 7.46704 0.0263117 7.46704C0.0263117 7.48771 0.0263117 7.5087 0.0263117 7.52969C0.0184808 7.54504 0.0100235 7.54629 0 7.53125C0 7.51027 0 7.48959 0 7.46861Z" fill="#616161"/>
    <path d="M0 7.53135C0.00877056 7.53072 0.0175411 7.5301 0.0263117 7.52979C0.0313234 7.55704 0.0291308 7.58084 0 7.594C0 7.57301 0 7.55234 0 7.53135Z" fill="#484848"/>
    <path d="M0 8.1875C0.0269381 8.20128 0.0306969 8.22509 0.0272514 8.25203C0.0172279 8.26393 0.00814409 8.26393 0 8.25015C0 8.22916 0 8.20849 0 8.1875Z" fill="#323232"/>
    <path d="M-0.000175047 8.25C0.00890874 8.25031 0.0179925 8.25094 0.0270763 8.25188C0.0267631 8.27255 0.0267631 8.29323 0.0264499 8.3139C0.0167396 8.32674 0.00796904 8.3258 -0.000488281 8.31265C-0.000175047 8.29166 -0.000175047 8.27099 -0.000175047 8.25Z" fill="#4C4C4C"/>
    <path d="M0 8.3125C0.00908379 8.31281 0.0178543 8.31313 0.0269381 8.31375C0.0263117 8.33474 0.0259984 8.35604 0.025372 8.37703C0.0169146 8.37703 0.00845732 8.3764 0 8.37515C0 8.35416 0 8.33349 0 8.3125Z" fill="#656565"/>
    <path d="M13.6477 4.32373C12.09 1.90283 9.09233 0.725203 6.31583 1.46173C4.33744 1.98661 2.87056 3.16798 1.94245 4.99179C1.3448 6.16597 1.1365 7.42019 1.30377 8.73192C1.42311 9.66852 1.74386 10.5342 2.22217 11.3441C2.26916 11.4235 2.29578 11.497 2.27354 11.5924C2.18239 11.9819 2.09719 12.3727 2.01105 12.7634C1.89641 13.2842 1.78333 13.8051 1.66712 14.3381C1.70126 14.334 1.721 14.3337 1.73979 14.3296C2.61559 14.1299 3.49202 13.9323 4.36688 13.7272C4.51191 13.6931 4.62843 13.7091 4.76219 13.781C6.34934 14.6338 8.03204 14.868 9.75764 14.3634C12.4609 13.5731 14.1207 11.7621 14.6369 8.98608C14.9467 7.31765 14.5677 5.75332 13.6477 4.32373ZM11.2082 10.9062C10.6344 11.3241 10.0217 11.3645 9.35545 11.2044C7.65804 10.7958 6.35154 9.83046 5.3423 8.43087C4.98959 7.94194 4.62937 7.45645 4.45365 6.86748C4.22499 6.10095 4.32961 5.401 4.8643 4.78108C5.07166 4.54099 5.30502 4.38531 5.64739 4.44471C5.98724 4.35936 6.15545 4.55506 6.27072 4.84861C6.43768 5.27345 6.6134 5.69486 6.79132 6.11533C6.84457 6.241 6.8358 6.35104 6.77973 6.47327C6.68168 6.68804 6.51504 6.84404 6.35623 7.00847C6.17487 7.19604 6.17049 7.25137 6.30173 7.47021C6.89061 8.45276 7.70815 9.16834 8.77252 9.5985C8.97049 9.67853 9.03909 9.66477 9.18004 9.50002C9.3661 9.28275 9.55154 9.06486 9.72037 8.83321C9.84096 8.66784 9.91332 8.6397 10.1085 8.71848C10.6381 8.932 11.1403 9.20429 11.6502 9.45969C11.7429 9.50627 11.768 9.59006 11.7652 9.68134C11.7514 10.1668 11.6345 10.5961 11.2082 10.9062Z" fill="#FEFEFE"/>
  </g>
  <defs>
    <clipPath id="clip0_1629_67181">
      <rect width="16" height="16" fill="white"/>
    </clipPath>
  </defs>
</svg>