<svg xmlns="http://www.w3.org/2000/svg" width="14" height="14" viewBox="0 0 14 14" fill="none">
  <g clip-path="url(#clip0_1629_67205)">
    <path d="M13.9218 13.8636C12.0894 11.2576 10.2576 8.65142 8.42268 6.04717C8.36122 5.95998 8.3503 5.90907 8.42908 5.8202C9.32423 4.81234 10.2139 3.79975 11.1042 2.78793C11.9216 1.85902 12.7376 0.92936 13.5541 0C13.1437 0 12.7334 0 12.323 0C12.251 0.0356684 12.1963 0.0897807 12.1442 0.149228C11.7719 0.5742 11.4013 1.00039 11.0261 1.42293C10.5319 1.97929 10.042 2.53932 9.54919 3.09705C8.9896 3.73055 8.43001 4.36404 7.87542 5.00166C7.80334 5.08458 7.7748 5.07208 7.7191 4.99175C7.20226 4.24545 6.67481 3.50633 6.15407 2.76262C5.56234 1.91756 4.96671 1.07508 4.37483 0.229863C4.31789 0.148161 4.27109 0.0559415 4.18092 0C2.79123 0 1.40154 0 0.0118563 0C0.0199686 0.0524356 0.0605297 0.0865797 0.0889226 0.126973C1.85739 2.64327 3.62586 5.15972 5.39854 7.67328C5.46328 7.76504 5.44877 7.81123 5.38169 7.88729C3.80433 9.67361 2.22977 11.4621 0.654751 13.2504C0.441181 13.493 0.228391 13.7361 0 13.9965C0.409044 13.9965 0.790475 13.9945 1.17175 13.9983C1.24117 13.9989 1.26972 13.9572 1.30513 13.9168C2.41479 12.6566 3.52414 11.3962 4.63365 10.1361C5.0923 9.61507 5.55142 9.09453 6.01663 8.56697C6.04954 8.6095 6.07856 8.64441 6.10461 8.68129C7.32816 10.421 8.55185 12.1603 9.77259 13.902C9.82423 13.9756 9.87633 13.9988 9.96447 13.9985C11.2701 13.9957 12.5757 13.9968 13.8813 13.9956C13.9192 13.9956 13.963 14.0142 14.0002 13.9767C13.9733 13.938 13.9479 13.9006 13.9218 13.8636ZM12.1866 13.126C11.6365 13.1269 11.0863 13.1248 10.5362 13.1286C10.452 13.1292 10.4032 13.1025 10.3553 13.0354C7.4918 9.0302 4.62647 5.02635 1.76191 1.02188C1.73914 0.990179 1.70263 0.963657 1.70435 0.906953C2.16534 0.906953 2.62493 0.906496 3.08452 0.907258C3.24755 0.907563 3.43678 0.861377 3.56611 0.926769C3.69497 0.991856 3.76532 1.16928 3.85846 1.29946C6.64127 5.18762 9.42376 9.07608 12.2061 12.9646C12.2395 13.0113 12.2708 13.0595 12.3033 13.1074C12.2598 13.1377 12.2219 13.126 12.1866 13.126Z" fill="#6B7280"/>
  </g>
  <defs>
    <clipPath id="clip0_1629_67205">
      <rect width="14" height="14" fill="white"/>
    </clipPath>
  </defs>
</svg>