<svg xmlns="http://www.w3.org/2000/svg" width="29.997" height="29.997" viewBox="0 0 29.997 29.997"><defs><style>.a{fill:#acacac;}</style></defs><g transform="translate(-14.25 -14.25)"><path class="a" d="M14.25,14.25v30h30v-30ZM42.988,42.988H15.509V38.168L25,28.67l8.475,8.475,4.275-4.275L42.988,38.1Zm-5.236-11.9-4.275,4.275L25,26.891l-9.494,9.49V15.509h27.48V36.326Z" transform="translate(0 0)"/><path class="a" d="M62.222,22.9a3.642,3.642,0,1,0,3.642,3.642A3.642,3.642,0,0,0,62.222,22.9Zm0,6.025A2.383,2.383,0,1,1,64.6,26.542a2.383,2.383,0,0,1-2.383,2.383Z" transform="translate(-25.732 -5.021)"/></g></svg>