<?xml version="1.0" encoding="utf-8"?>
<!-- Generator: Adobe Illustrator 23.1.0, SVG Export Plug-In . SVG Version: 6.00 Build 0)  -->
<svg version="1.1" id="Layer_1" xmlns="http://www.w3.org/2000/svg" xmlns:xlink="http://www.w3.org/1999/xlink" x="0px" y="0px"
	 viewBox="0 0 200 200" style="enable-background:new 0 0 200 200;" xml:space="preserve">
<style type="text/css">
	.st0{fill:#010101;}
</style>
<g>
	<g id="Laptop_2_">
		<g>
			<path d="M152.04,45.75H47.96c-7.48,0-13.57,6.08-13.57,13.56v58.77c0,7.48,6.08,13.57,13.57,13.57h104.07
				c7.48,0,13.57-6.09,13.57-13.57V59.31C165.6,51.83,159.52,45.75,152.04,45.75z M156.56,118.08c0,2.49-2.04,4.52-4.53,4.52H47.96
				c-2.49,0-4.53-2.03-4.53-4.52V59.31c0-2.49,2.03-4.52,4.53-4.52h104.07c2.49,0,4.53,2.03,4.53,4.52V118.08z M158.82,140.69
				h-40.73c0,2.49-2.03,4.53-4.53,4.53H86.43c-2.5,0-4.52-2.03-4.52-4.53H41.18c-3.74,0-6.78,3.04-6.78,6.78s3.04,6.78,6.78,6.78
				c2.95,0,114.69,0,117.64,0c3.74,0,6.79-3.04,6.79-6.78S162.56,140.69,158.82,140.69z"/>
		</g>
	</g>
	<g>
		<path d="M83.8,89.85v10.89h-6.83V71.31h9.57c2.13,0,3.94,0.22,5.44,0.66c1.5,0.44,2.73,1.05,3.67,1.83
			c0.96,0.78,1.64,1.7,2.07,2.76c0.43,1.07,0.65,2.22,0.65,3.47c0,0.96-0.13,1.86-0.39,2.71c-0.26,0.84-0.63,1.63-1.14,2.35
			c-0.51,0.71-1.13,1.36-1.86,1.92c-0.73,0.57-1.58,1.03-2.54,1.4c0.46,0.23,0.89,0.51,1.29,0.85c0.4,0.34,0.74,0.75,1.04,1.23
			l6.26,10.24h-6.18c-1.15,0-1.97-0.43-2.47-1.29l-4.89-8.54c-0.22-0.38-0.47-0.65-0.76-0.81c-0.29-0.16-0.69-0.24-1.22-0.24H83.8z
			 M83.8,85.15h2.75c0.93,0,1.71-0.11,2.37-0.35c0.65-0.24,1.19-0.56,1.61-0.98c0.42-0.42,0.72-0.91,0.91-1.47
			c0.19-0.56,0.29-1.16,0.29-1.81c0-1.3-0.43-2.3-1.26-3.03c-0.84-0.73-2.15-1.09-3.91-1.09H83.8V85.15z"/>
		<path d="M103.03,107.39v-27.6h3.87c0.4,0,0.73,0.09,0.98,0.27c0.26,0.18,0.45,0.44,0.56,0.79l0.46,1.54
			c0.41-0.45,0.84-0.85,1.3-1.21c0.47-0.36,0.97-0.67,1.5-0.94c0.53-0.27,1.11-0.47,1.72-0.62c0.61-0.14,1.29-0.22,2.02-0.22
			c1.08,0,2.1,0.24,3.03,0.72c0.93,0.49,1.73,1.19,2.4,2.11c0.68,0.91,1.2,2.04,1.58,3.36c0.39,1.33,0.58,2.83,0.58,4.52
			c0,1.58-0.22,3.03-0.65,4.36c-0.43,1.33-1.05,2.49-1.84,3.47c-0.79,0.98-1.73,1.75-2.83,2.3c-1.1,0.55-2.32,0.82-3.65,0.82
			c-1.09,0-2.01-0.15-2.75-0.46c-0.74-0.31-1.41-0.73-2.02-1.25v8.04H103.03z M113.25,84.18c-0.46,0-0.87,0.04-1.24,0.13
			c-0.37,0.09-0.71,0.21-1.03,0.37c-0.31,0.16-0.61,0.37-0.87,0.62c-0.27,0.25-0.54,0.53-0.81,0.86v8.89
			c0.47,0.53,0.98,0.89,1.53,1.1c0.55,0.21,1.13,0.32,1.73,0.32c0.58,0,1.11-0.11,1.6-0.34c0.49-0.23,0.9-0.6,1.26-1.1
			c0.36-0.51,0.64-1.16,0.84-1.97c0.2-0.81,0.31-1.79,0.31-2.95c0-1.11-0.09-2.03-0.25-2.79s-0.39-1.36-0.67-1.83
			c-0.29-0.46-0.63-0.8-1.04-1C114.2,84.28,113.75,84.18,113.25,84.18z"/>
	</g>
</g>
</svg>