<?xml version="1.0" encoding="utf-8"?>
<!-- Generator: Adobe Illustrator 23.1.0, SVG Export Plug-In . SVG Version: 6.00 Build 0)  -->
<svg version="1.1" id="Layer_1" xmlns="http://www.w3.org/2000/svg" xmlns:xlink="http://www.w3.org/1999/xlink" x="0px" y="0px"
	 viewBox="0 0 200 200" style="enable-background:new 0 0 200 200;" xml:space="preserve">
<style type="text/css">
	.st0{fill:#010101;}
</style>
<g>
	<path class="st0" d="M134.81,156.58H65.19c-12.01,0-21.75-9.74-21.75-21.75V73.92c0-2.4,1.95-4.35,4.35-4.35h87.01
		c12.01,0,21.75,9.74,21.75,21.75v43.51C156.56,146.84,146.82,156.58,134.81,156.58z M52.14,78.27v56.56
		c0,7.21,5.84,13.05,13.05,13.05h69.61c7.21,0,13.05-5.84,13.05-13.05V91.32c0-7.21-5.84-13.05-13.05-13.05H52.14z"/>
	<path class="st0" d="M143.51,78.27c-2.4,0-4.35-1.95-4.35-4.35V61.95c0.17-3.09-1.08-6.08-3.39-8.14
		c-2.08-1.56-4.76-2.07-7.27-1.39L55.54,69c-2.02,0.46-3.44,2.28-3.39,4.35c0,2.4-1.95,4.35-4.35,4.35s-4.35-1.95-4.35-4.35
		c-0.05-6.13,4.16-11.47,10.14-12.83l73.01-16.58c5.09-1.29,10.49-0.15,14.62,3.09c4.37,3.71,6.82,9.2,6.66,14.92v11.96
		C147.86,76.32,145.91,78.27,143.51,78.27z"/>
	<path class="st0" d="M152.21,130.47h-30.46c-9.61,0-17.4-7.79-17.4-17.4s7.79-17.4,17.4-17.4h30.46c2.4,0,4.35,1.95,4.35,4.35v26.1
		C156.56,128.53,154.61,130.47,152.21,130.47z M121.75,104.37c-4.81,0-8.7,3.9-8.7,8.7c0,4.81,3.9,8.7,8.7,8.7h26.1v-17.4H121.75z"
		/>
</g>
</svg>