<?xml version="1.0" encoding="utf-8"?>
<!-- Generator: Adobe Illustrator 23.1.0, SVG Export Plug-In . SVG Version: 6.00 Build 0)  -->
<svg version="1.1" id="Layer_1" xmlns="http://www.w3.org/2000/svg" xmlns:xlink="http://www.w3.org/1999/xlink" x="0px" y="0px"
	 viewBox="0 0 200 200" style="enable-background:new 0 0 200 200;" xml:space="preserve">
<style type="text/css">
	.st0{fill:#010101;}
</style>
<g>
	<g>
		<path d="M67.28,82.91h6.38c0.69,0,1.25,0.16,1.69,0.47c0.44,0.31,0.75,0.73,0.94,1.24l6.62,18.29c0.29,0.8,0.6,1.67,0.9,2.6
			c0.3,0.94,0.59,1.92,0.85,2.96c0.22-1.03,0.47-2.02,0.76-2.96c0.29-0.94,0.58-1.81,0.86-2.6l6.56-18.29
			c0.16-0.44,0.46-0.83,0.92-1.18c0.45-0.35,1.01-0.53,1.67-0.53h6.43l-13.7,34.17h-7.18L67.28,82.91z"/>
		<path d="M132.72,117.08h-6.14c-0.69,0-1.25-0.16-1.7-0.48c-0.45-0.32-0.76-0.73-0.93-1.23l-2.02-5.96h-12.99l-2.02,5.96
			c-0.16,0.44-0.46,0.83-0.92,1.18c-0.45,0.35-1.01,0.53-1.67,0.53h-6.19l13.23-34.17h8.11L132.72,117.08z M110.76,104.02h9.33
			l-3.14-9.36c-0.2-0.6-0.44-1.3-0.72-2.1c-0.27-0.81-0.54-1.68-0.81-2.61c-0.25,0.95-0.51,1.84-0.78,2.65
			c-0.27,0.81-0.51,1.52-0.75,2.11L110.76,104.02z"/>
	</g>
	<g id="Laptop_3_">
		<g>
			<path d="M157.39,52.63H42.61c-8.25,0-14.97,6.71-14.97,14.96v64.82c0,8.25,6.71,14.96,14.97,14.96h114.79
				c8.25,0,14.97-6.71,14.97-14.96V67.59C172.36,59.33,165.64,52.63,157.39,52.63z M162.39,132.41c0,2.75-2.24,4.98-4.99,4.98H42.61
				c-2.75,0-4.99-2.24-4.99-4.98V67.59c0-2.75,2.24-4.99,4.99-4.99h114.79c2.75,0,4.99,2.24,4.99,4.99V132.41z"/>
		</g>
	</g>
</g>
</svg>