<?xml version="1.0" encoding="utf-8"?>
<!-- Generator: Adobe Illustrator 23.1.0, SVG Export Plug-In . SVG Version: 6.00 Build 0)  -->
<svg version="1.1" id="Layer_1" xmlns="http://www.w3.org/2000/svg" xmlns:xlink="http://www.w3.org/1999/xlink" x="0px" y="0px"
	 viewBox="0 0 200 200" style="enable-background:new 0 0 200 200;" xml:space="preserve">
<style type="text/css">
	.st0{fill:#010101;}
</style>
<g>
	<g>
		<g>
			<path d="M118.08,138.13l8.91,1.18c8.32,1.1,16.64,2.2,24.95,3.3c1.34,0.17,2.63-0.22,3.64-0.99c1.01-0.78,1.72-1.96,1.9-3.33
				c0.59-4.43,1.17-8.85,1.75-13.27c0.53-1.67,0.76-3.42,0.69-5.19c1.69-12.85,3.39-25.67,4.93-37.19h0.01l0.27-2.12V80.5
				c0.11-0.77,0.02-1.53-0.21-2.23c-0.24-0.73-0.64-1.39-1.17-1.94l0,0c-0.32-0.33-0.69-0.62-1.1-0.86
				c-0.39-0.23-0.81-0.4-1.24-0.49v0l-0.05-0.01l0,0c-0.09-0.02-0.16-0.03-0.21-0.04c-0.2-0.04-0.17-0.04-0.22-0.04h-0.02
				l-5.74-0.76c-0.19-2.29-0.33-4.58-0.41-6.86l7.03,0.93l0,0c0.29,0.04,0.45,0.06,0.49,0.07c0.19,0.03,0.36,0.06,0.5,0.09
				l0.03,0.01l0.09,0.02h0.01c1.13,0.26,2.16,0.68,3.09,1.21c0.97,0.56,1.85,1.25,2.62,2.05l0.02,0.03
				c1.22,1.27,2.15,2.81,2.71,4.51c0.53,1.61,0.72,3.38,0.47,5.2l0,0l-0.28,2.13v0.03c-1.84,13.67-3.45,25.96-5.08,38.26
				c-0.76,5.79-1.53,11.58-2.29,17.36c-0.43,3.22-2.11,5.96-4.48,7.8c-2.37,1.84-5.44,2.76-8.63,2.35c-8.32-1.1-16.63-2.2-24.96-3.3
				c-12.77-1.69-25.55-3.38-38.31-5.07C97.9,140,107.99,139.07,118.08,138.13z"/>
		</g>
		<g>
			<path d="M44.69,134.64c0.13,0.01,0.27,0.03,0.42,0.05v0l0,0c0.19,0,0.17,0.01,0.21,0c0.12-0.01,0.2-0.01,0.25-0.02h0.01l6.46-0.6
				c22.74-2.08,45.49-4.19,68.23-6.31c8.36-0.78,16.73-1.56,25.09-2.33c1.33-0.13,2.48-0.8,3.29-1.78c0.82-1,1.26-2.31,1.14-3.69
				c-0.54-5.82-1.08-11.64-1.62-17.46c-1.2-12.81-2.39-25.61-3.56-38.42l0,0l-0.21-2.16v-0.01c-0.08-0.77-0.32-1.49-0.7-2.11
				c-0.39-0.65-0.93-1.21-1.57-1.64v0c-0.41-0.26-0.83-0.46-1.28-0.6c-0.42-0.13-0.86-0.2-1.32-0.2v0.01h-0.09v-0.01l-0.19,0.01
				c-0.09,0.01-0.16,0.01-0.21,0.01h-0.02l-99.78,9.26c-1.33,0.12-2.5,0.79-3.3,1.77c-0.81,0.99-1.25,2.3-1.13,3.68l5.38,58.04
				c0.11,1.22,0.64,2.29,1.43,3.09C42.43,134.01,43.51,134.53,44.69,134.64L44.69,134.64L44.69,134.64z M45.11,134.68L45.11,134.68
				c0.01,0,0.06,0.01,0.04,0L45.11,134.68L45.11,134.68z M44.3,141.38c-0.01,0-0.02,0-0.07-0.01h-0.09
				c-2.81-0.23-5.36-1.47-7.26-3.37c-1.88-1.87-3.13-4.4-3.39-7.27L28.1,72.71c-0.3-3.22,0.74-6.26,2.63-8.58
				c1.9-2.32,4.69-3.91,7.9-4.21l99.75-9.26l0,0c0.19-0.02,0.36-0.03,0.52-0.04c0.1-0.01,0.27-0.01,0.51-0.01l0.03-0.02h0.09
				l0.02,0.02c1.13,0,2.22,0.18,3.26,0.49c1.09,0.33,2.1,0.81,3.02,1.41l0.03,0.01c1.46,0.97,2.71,2.27,3.64,3.81
				c0.88,1.46,1.45,3.13,1.62,4.96l0,0l0.21,2.16v0.01c1.17,12.81,2.36,25.62,3.55,38.43c0.54,5.82,1.09,11.64,1.63,17.46
				c0.3,3.23-0.73,6.27-2.62,8.58c-1.9,2.32-4.7,3.91-7.92,4.21c-8.37,0.78-16.73,1.56-25.1,2.34c-22.74,2.12-45.48,4.24-68.22,6.31
				l-6.45,0.6l0,0c-0.22,0.02-0.4,0.04-0.54,0.04c-0.29,0.02-0.48,0.02-0.55,0.02C44.87,141.45,44.58,141.42,44.3,141.38z"/>
		</g>
		<g>
			<polygon points="33.57,93.2 148.73,79.65 149.49,86.37 34.34,99.92 			"/>
		</g>
		<g>
			<rect x="121.96" y="112.47" transform="matrix(0.994 -0.1093 0.1093 0.994 -11.8801 14.9457)" width="16.88" height="6.76"/>
		</g>
	</g>
	<g>
		<path d="M44.47,120.37c-0.26-2.67,0.57-5.2,2.14-7.13c1.56-1.94,3.86-3.28,6.51-3.54c1.02-0.1,2.02-0.03,2.98,0.19
			c0.51,0.11,1.01,0.27,1.5,0.47c0.48-0.35,1-0.67,1.54-0.93c0.96-0.46,1.99-0.76,3.09-0.87c0.94-0.09,1.86-0.03,2.78,0.15
			c0.94,0.19,1.83,0.51,2.64,0.94l0,0.01c0.66,0.36,1.27,0.79,1.81,1.27c0.56,0.49,1.06,1.06,1.51,1.68l0.01,0.01
			c0.47,0.68,0.89,1.43,1.2,2.24c0.3,0.79,0.51,1.6,0.59,2.44c0.27,2.66-0.57,5.18-2.13,7.11c-1.56,1.93-3.85,3.26-6.5,3.52
			c-1,0.1-2,0.03-2.96-0.18c-0.49-0.11-0.98-0.26-1.44-0.45c-0.49,0.36-1.02,0.68-1.58,0.95c-0.97,0.46-2.01,0.77-3.12,0.88v-0.01
			c-1.52,0.15-3-0.07-4.33-0.59c-1.38-0.54-2.63-1.39-3.64-2.49h0c-0.44-0.47-0.84-1-1.19-1.58c-0.34-0.57-0.63-1.17-0.85-1.79
			v-0.02c-0.12-0.37-0.24-0.73-0.32-1.07C44.59,121.18,44.51,120.78,44.47,120.37L44.47,120.37z M49.72,115.75
			c-0.92,1.14-1.41,2.64-1.26,4.23c0.02,0.24,0.06,0.45,0.11,0.66c0.06,0.27,0.13,0.49,0.2,0.7h0.01c0.13,0.38,0.3,0.74,0.49,1.06
			c0.2,0.32,0.44,0.63,0.72,0.94l0,0.01c0.6,0.64,1.34,1.15,2.16,1.47c0.78,0.3,1.62,0.43,2.5,0.34l-0.01-0.01
			c0.65-0.07,1.25-0.24,1.79-0.49c0.58-0.28,1.11-0.67,1.57-1.13l1.1-1.09l1.33,0.78c0.48,0.29,1.02,0.5,1.6,0.63
			c0.54,0.12,1.12,0.16,1.72,0.1c1.53-0.15,2.86-0.92,3.77-2.04c0.91-1.13,1.4-2.62,1.25-4.2c-0.05-0.52-0.16-0.99-0.32-1.41
			c-0.19-0.48-0.44-0.94-0.74-1.36l0,0c-0.26-0.36-0.56-0.7-0.9-1.01c-0.32-0.29-0.67-0.54-1.03-0.73v0
			c-0.49-0.26-1.01-0.45-1.54-0.56c-0.5-0.1-1.03-0.13-1.6-0.07c-0.64,0.06-1.23,0.23-1.77,0.49c-0.58,0.28-1.11,0.66-1.56,1.11
			l-1.09,1.08l-1.33-0.77c-0.51-0.3-1.07-0.53-1.66-0.66c-0.55-0.12-1.12-0.17-1.71-0.11C51.97,113.85,50.63,114.62,49.72,115.75z"
			/>
	</g>
</g>
</svg>