<?xml version="1.0" encoding="utf-8"?>
<!-- Generator: Adobe Illustrator 23.1.0, SVG Export Plug-In . SVG Version: 6.00 Build 0)  -->
<svg version="1.1" id="Layer_1" xmlns="http://www.w3.org/2000/svg" xmlns:xlink="http://www.w3.org/1999/xlink" x="0px" y="0px"
	 viewBox="0 0 200 200" style="enable-background:new 0 0 200 200;" xml:space="preserve">
<style type="text/css">
	.st0{fill:#010101;}
</style>
<g>
	<g>
		<g>
			<g>
				<polygon points="174.59,51.89 41.31,51.89 41.31,59.8 166.61,59.8 166.61,132.21 174.59,132.21 				"/>
				<path d="M25.41,67.79v80.32h133.21V67.79H25.41z M150.63,140.12H33.36V75.78h117.27V140.12z"/>
			</g>
		</g>
	</g>
	<g>
		<path d="M75.13,108.17v11.07h-6.94V89.32h9.74c2.16,0,4.01,0.22,5.54,0.67c1.52,0.45,2.76,1.06,3.73,1.86
			c0.96,0.8,1.67,1.73,2.11,2.81c0.44,1.08,0.65,2.26,0.65,3.53c0,0.97-0.13,1.89-0.39,2.75c-0.26,0.86-0.65,1.66-1.16,2.39
			c-0.51,0.73-1.15,1.39-1.89,1.96c-0.75,0.58-1.61,1.05-2.58,1.42c0.46,0.23,0.9,0.52,1.31,0.86c0.4,0.34,0.75,0.76,1.05,1.25
			l6.37,10.41h-6.28c-1.16,0-2-0.44-2.5-1.32l-4.97-8.69c-0.22-0.38-0.47-0.66-0.77-0.82c-0.29-0.17-0.71-0.25-1.24-0.25H75.13z
			 M75.13,103.38h2.79c0.94,0,1.74-0.12,2.41-0.36c0.66-0.24,1.21-0.57,1.63-0.99c0.42-0.43,0.73-0.92,0.93-1.49
			c0.19-0.57,0.29-1.18,0.29-1.84c0-1.32-0.43-2.34-1.29-3.08c-0.85-0.74-2.18-1.11-3.97-1.11h-2.79V103.38z"/>
		<path d="M94.68,126V97.94h3.95c0.4,0,0.73,0.09,1,0.27c0.27,0.18,0.46,0.44,0.56,0.8l0.47,1.56c0.41-0.45,0.85-0.86,1.33-1.23
			c0.47-0.37,0.97-0.69,1.51-0.96c0.55-0.27,1.13-0.47,1.75-0.62c0.62-0.15,1.31-0.23,2.05-0.23c1.11,0,2.13,0.25,3.08,0.74
			c0.95,0.5,1.76,1.21,2.45,2.14c0.68,0.93,1.22,2.07,1.61,3.42c0.39,1.35,0.59,2.88,0.59,4.59c0,1.6-0.22,3.08-0.67,4.44
			c-0.44,1.35-1.06,2.53-1.86,3.53c-0.8,1-1.76,1.78-2.88,2.34c-1.11,0.56-2.35,0.84-3.7,0.84c-1.11,0-2.04-0.15-2.79-0.47
			c-0.75-0.31-1.44-0.74-2.05-1.27V126H94.68z M105.07,102.4c-0.46,0-0.88,0.04-1.26,0.13c-0.38,0.09-0.72,0.22-1.05,0.38
			c-0.32,0.17-0.62,0.38-0.89,0.63c-0.27,0.25-0.55,0.55-0.82,0.87v9.04c0.48,0.53,0.99,0.91,1.56,1.12
			c0.56,0.21,1.15,0.32,1.77,0.32c0.59,0,1.13-0.11,1.62-0.35c0.5-0.24,0.92-0.61,1.29-1.12c0.36-0.51,0.64-1.18,0.85-2
			c0.21-0.82,0.31-1.82,0.31-3c0-1.13-0.08-2.07-0.25-2.84c-0.16-0.77-0.4-1.38-0.69-1.86c-0.29-0.47-0.64-0.81-1.05-1.01
			C106.04,102.5,105.58,102.4,105.07,102.4z"/>
	</g>
</g>
</svg>