<?xml version="1.0" encoding="utf-8"?>
<!-- Generator: Adobe Illustrator 25.4.1, SVG Export Plug-In . SVG Version: 6.00 Build 0)  -->
<svg version="1.1" id="Layer_1" xmlns="http://www.w3.org/2000/svg" xmlns:xlink="http://www.w3.org/1999/xlink" x="0px" y="0px"
	 viewBox="0 0 64 64" style="enable-background:new 0 0 64 64;" xml:space="preserve">
<style type="text/css">
	.st0{stroke:#000000;stroke-width:0.25;stroke-miterlimit:10;}
	.st1{fill-rule:evenodd;clip-rule:evenodd;}
	.st2{fill:#FFFFFF;}
	.st3{fill:#231F20;}
</style>
<g>
	<path d="M20.1,31.9H19v-1.1h2.3c0.6,0,1.1-0.5,1.1-1.1c0-0.6-0.5-1.1-1.1-1.1h-3.4c-0.6,0-1.1,0.5-1.1,1.1v6.8
		c0,0.6,0.5,1.1,1.1,1.1S19,37,19,36.4v-2.3h1.1c0.6,0,1.1-0.5,1.1-1.1S20.7,31.9,20.1,31.9z"/>
	<path d="M34.8,30.8c0.6,0,1.1-0.5,1.1-1.1c0-0.6-0.5-1.1-1.1-1.1h-3.4c-0.6,0-1.1,0.5-1.1,1.1v6.8c0,0.6,0.5,1.1,1.1,1.1h3.4
		c0.6,0,1.1-0.5,1.1-1.1c0-0.6-0.5-1.1-1.1-1.1h-2.3v-1.1h1.1c0.6,0,1.1-0.5,1.1-1.1s-0.5-1.1-1.1-1.1h-1.1v-1.1H34.8z"/>
	<path d="M41.5,30.8c0.6,0,1.1-0.5,1.1-1.1c0-0.6-0.5-1.1-1.1-1.1h-3.4c-0.6,0-1.1,0.5-1.1,1.1v6.8c0,0.6,0.5,1.1,1.1,1.1h3.4
		c0.6,0,1.1-0.5,1.1-1.1c0-0.6-0.5-1.1-1.1-1.1h-2.3v-1.1h1.1c0.6,0,1.1-0.5,1.1-1.1s-0.5-1.1-1.1-1.1h-1.1v-1.1H41.5z"/>
	<path d="M29.1,30.8c0-1.3-0.9-2.3-2.3-2.3h-2.3c-0.6,0-1.1,0.5-1.1,1.1v6.8c0,0.6,0.5,1.1,1.1,1.1c0.6,0,1.1-0.5,1.1-1.1v-2.3h0.6
		c0.3,0,0.6,0.3,0.6,0.6v1.7c0,0.6,0.5,1.1,1.1,1.1c0.6,0,1.1-0.5,1.1-1.1v-1.7c0-0.5-0.2-1-0.4-1.5c0.3-0.4,0.4-0.8,0.4-1.4V30.8z
		 M25.7,30.8h1.1v1.1h-1.1V30.8z"/>
</g>
<path d="M41.5,43.1h-6.9c-0.6,0-1.1-0.5-1.1-1.1c0-0.6,0.5-1.1,1.1-1.1h6.9c0.6,0,1.1,0.5,1.1,1.1C42.7,42.6,42.2,43.1,41.5,43.1z"
	/>
<path d="M46.1,23.3H17.9c-0.6,0-1.1-0.5-1.1-1.1c0-0.3,0.1-0.5,0.2-0.7l3.8-5c0.2-0.3,0.6-0.5,0.9-0.5h20.6c0.4,0,0.7,0.2,0.9,0.5
	l3.8,5c0.4,0.5,0.3,1.2-0.2,1.6C46.6,23.2,46.4,23.3,46.1,23.3z M20.2,21.1h23.7l-2.1-2.8H22.2L20.2,21.1z"/>
<path d="M46.1,21H17.9c-0.6,0-1.1,0.5-1.1,1.1V26H19v-2.6H45v22.4H19v-5.5h-2.3v6.6c0,0.6,0.5,1.1,1.1,1.1h28.2
	c0.6,0,1.1-0.5,1.1-1.1V22.2C47.2,21.5,46.7,21,46.1,21z"/>
<circle cx="17.9" cy="40.3" r="1.1"/>
<circle cx="17.9" cy="25.9" r="1.1"/>
</svg>
