<?xml version="1.0" encoding="utf-8"?>
<!-- Generator: Adobe Illustrator 25.4.1, SVG Export Plug-In . SVG Version: 6.00 Build 0)  -->
<svg version="1.1" id="Layer_1" xmlns="http://www.w3.org/2000/svg" xmlns:xlink="http://www.w3.org/1999/xlink" x="0px" y="0px"
	 viewBox="0 0 64 64" style="enable-background:new 0 0 64 64;" xml:space="preserve">
<style type="text/css">
	.st0{stroke:#000000;stroke-width:0.25;stroke-miterlimit:10;}
	.st1{fill-rule:evenodd;clip-rule:evenodd;}
	.st2{fill:#FFFFFF;}
	.st3{fill:#231F20;}
</style>
<g>
	<g>
		<path d="M30.3,33H11c-0.6,0-1-0.5-1-1s0.5-1,1-1h19.3c0.6,0,1,0.5,1,1S30.9,33,30.3,33z"/>
	</g>
	<g>
		<path d="M30.3,37.9H17.1c-0.6,0-1-0.5-1-1s0.5-1,1-1h13.2c0.6,0,1,0.5,1,1S30.9,37.9,30.3,37.9z"/>
	</g>
	<g>
		<path d="M30.3,42.7h-8.1c-0.6,0-1-0.5-1-1s0.5-1,1-1h8.1c0.6,0,1,0.5,1,1S30.9,42.7,30.3,42.7z"/>
	</g>
	<g>
		<path d="M48.3,43.1h-6.9c-0.6,0-1.1-0.5-1.1-1.1c0-0.6,0.5-1.1,1.1-1.1h6.9c0.6,0,1.1,0.5,1.1,1.1C49.5,42.6,49,43.1,48.3,43.1z"
			/>
		<path d="M52.9,48H24.7c-0.6,0-1.1-0.5-1.1-1.1V22.2c0-0.6,0.5-1.1,1.1-1.1h28.2c0.6,0,1.1,0.5,1.1,1.1v24.7
			C54.1,47.5,53.6,48,52.9,48z M25.9,45.7h25.9V23.3H25.9L25.9,45.7z"/>
		<path d="M52.9,23.3H24.7c-0.6,0-1.1-0.5-1.1-1.1c0-0.3,0.1-0.5,0.2-0.7l3.8-5c0.2-0.3,0.6-0.5,0.9-0.5h20.6c0.4,0,0.7,0.2,0.9,0.5
			l3.8,5c0.4,0.5,0.3,1.2-0.2,1.6C53.4,23.2,53.2,23.3,52.9,23.3z M27,21.1h23.7l-2.1-2.8H29.1L27,21.1z"/>
	</g>
</g>
</svg>
