<?xml version="1.0" encoding="utf-8"?>
<!-- Generator: Adobe Illustrator 25.4.1, SVG Export Plug-In . SVG Version: 6.00 Build 0)  -->
<svg version="1.1" id="Layer_1" xmlns="http://www.w3.org/2000/svg" xmlns:xlink="http://www.w3.org/1999/xlink" x="0px" y="0px"
	 viewBox="0 0 64 64" style="enable-background:new 0 0 64 64;" xml:space="preserve">
<style type="text/css">
	.st0{stroke:#000000;stroke-width:0.25;stroke-miterlimit:10;}
	.st1{fill-rule:evenodd;clip-rule:evenodd;}
	.st2{fill:#FFFFFF;}
	.st3{fill:#231F20;}
</style>
<g>
	<g id="Motorcycle_00000056407280194025695120000001928547601485313681_">
		<path id="Vector_4__x28_Stroke_x29__00000059272648106990254520000013432658001478582934_" class="st1" d="M46.4,24.7
			c0.7,0,1.2,0.5,1.2,1.2V42c0,2.4-2,4.4-4.4,4.4H20.7c-0.7,0-1.2-0.5-1.2-1.2s0.5-1.2,1.2-1.2h22.5c1.1,0,2-0.9,2-2V25.9
			C45.2,25.3,45.7,24.7,46.4,24.7z"/>
		<path id="Rectangle_2__x28_Stroke_x29__00000150805533969861861030000002969347168633480639_" class="st1" d="M45.2,38.8
			c0-0.7,0.5-1.2,1.2-1.2h2.1c2,0,3.9,0.5,5.7,1.3c1.9,0.9,3.1,2.8,3.1,4.9v1.3c0,0.7-0.5,1.2-1.2,1.2h-9.6c-0.7,0-1.2-0.5-1.2-1.2
			V38.8z M47.6,40v4h7.2v-0.1c0-1.2-0.7-2.3-1.7-2.8c-1.4-0.7-3-1.1-4.6-1.1H47.6z"/>
		<path id="Rectangle_3__x28_Stroke_x29__00000119097531275430514070000012116666600412940430_" class="st1" d="M19.5,38.8
			c0-5.1,4.1-9.2,9.2-9.2h5.8c1.9,0,3.3,1.9,2.7,3.7L35,39.8c-0.1,0.4-0.1,0.9,0,1.3l1.3,3.8c0.1,0.4,0.1,0.8-0.2,1.1
			c-0.2,0.3-0.6,0.5-1,0.5H20.7c-0.7,0-1.2-0.5-1.2-1.2V38.8z M28.7,32c-3.8,0-6.8,3.1-6.8,6.8V44h11.6l-0.7-2.2
			c-0.3-0.9-0.3-1.9,0-2.8l2.2-6.5c0.1-0.3-0.1-0.5-0.4-0.5H28.7z"/>
		<path id="Rectangle_4__x28_Stroke_x29__00000020395864690813681210000000698482369203421861_" class="st1" d="M45.2,26.7
			c0-2,1.6-3.6,3.6-3.6h2.4c0.7,0,1.2,0.5,1.2,1.2v4.8c0,0.7-0.5,1.2-1.2,1.2h-2.4C46.8,30.4,45.2,28.7,45.2,26.7z M48.8,25.5
			c-0.7,0-1.2,0.5-1.2,1.2s0.5,1.2,1.2,1.2H50v-2.4H48.8z"/>
		<path id="Vector_5__x28_Stroke_x29__00000069399890249318528490000005166357254953302975_" class="st1" d="M42,25.9
			c0-0.7,0.5-1.2,1.2-1.2h3.2c0.7,0,1.2,0.5,1.2,1.2s-0.5,1.2-1.2,1.2h-3.2C42.5,27.1,42,26.6,42,25.9z"/>
		<path id="Vector_6__x28_Stroke_x29__00000024695068275790948280000009104363426161583030_" class="st1" d="M21.1,30.8
			c0-0.7,0.5-1.2,1.2-1.2h15.3c0.7,0,1.2,0.5,1.2,1.2c0,0.7-0.5,1.2-1.2,1.2H22.3C21.7,32,21.1,31.4,21.1,30.8z"/>
		<path id="Ellipse_4__x28_Stroke_x29__00000180338604431772527190000004880617475345044903_" class="st1" d="M48,44
			c0.7,0,1.2,0.5,1.2,1.2c0,1.1,0.9,2,2,2s2-0.9,2-2c0-0.7,0.5-1.2,1.2-1.2c0.7,0,1.2,0.5,1.2,1.2c0,2.4-2,4.4-4.4,4.4
			s-4.4-2-4.4-4.4C46.8,44.5,47.3,44,48,44z"/>
		<path id="Ellipse_5__x28_Stroke_x29__00000176748505555319240990000003142359456780454298_" class="st1" d="M23.9,44
			c0.7,0,1.2,0.5,1.2,1.2c0,1.1,0.9,2,2,2c1.1,0,2-0.9,2-2c0-0.7,0.5-1.2,1.2-1.2c0.7,0,1.2,0.5,1.2,1.2c0,2.4-2,4.4-4.4,4.4
			s-4.4-2-4.4-4.4C22.7,44.5,23.3,44,23.9,44z"/>
	</g>
	<g>
		<path d="M37.7,31.9H22.2c-0.6,0-1-0.5-1-1V15.4c0-0.6,0.5-1,1-1h15.5c0.6,0,1,0.5,1,1v15.5C38.7,31.4,38.2,31.9,37.7,31.9z
			 M23.2,29.8h13.4V16.4H23.2V29.8z"/>
	</g>
	<g>
		<path d="M25.3,20.2H7.8c-0.6,0-1-0.5-1-1s0.5-1,1-1h17.6c0.6,0,1,0.5,1,1S25.9,20.2,25.3,20.2z"/>
	</g>
	<g>
		<path d="M25.3,24.2h-12c-0.6,0-1-0.5-1-1s0.5-1,1-1h12c0.6,0,1,0.5,1,1S25.9,24.2,25.3,24.2z"/>
	</g>
	<g>
		<path d="M25.3,28.1H18c-0.6,0-1-0.5-1-1s0.5-1,1-1h7.4c0.6,0,1,0.5,1,1S25.9,28.1,25.3,28.1z"/>
	</g>
	<g>
		<path d="M29.9,21.9c-0.6,0-1-0.5-1-1v-5.5c0-0.6,0.5-1,1-1s1,0.5,1,1v5.5C31,21.5,30.5,21.9,29.9,21.9z"/>
	</g>
</g>
</svg>
