<?xml version="1.0" encoding="utf-8"?>
<!-- Generator: Adobe Illustrator 25.4.1, SVG Export Plug-In . SVG Version: 6.00 Build 0)  -->
<svg version="1.1" id="Layer_1" xmlns="http://www.w3.org/2000/svg" xmlns:xlink="http://www.w3.org/1999/xlink" x="0px" y="0px"
	 viewBox="0 0 64 64" style="enable-background:new 0 0 64 64;" xml:space="preserve">
<style type="text/css">
	.st0{stroke:#000000;stroke-width:0.25;stroke-miterlimit:10;}
	.st1{fill-rule:evenodd;clip-rule:evenodd;}
	.st2{fill:#FFFFFF;}
	.st3{fill:#231F20;}
</style>
<g>
	<path class="st0" d="M26.9,50.2c-0.5,0-1-0.2-1.5-0.7c-0.1-0.1-0.1-0.1-0.2-0.2l-3.9-6.7l-6.7-3.9c-0.1,0-0.1-0.1-0.2-0.2
		c-0.5-0.5-0.7-1.1-0.7-1.5c0-1,0.8-1.8,1.2-2.1c0,0,0.1-0.1,0.1-0.1c0.7-0.8,1.6-1,2.7-0.7l4.7,1.2l4.5-4.5l-7.9-6.4
		c0,0-0.1,0-0.1-0.1c-2-2.1-2-4.1,0-6.2c0.9-0.9,1.9-1.4,3-1.4c0.6,0,1.2,0.2,1.8,0.3l0.2,0c0,0,0.1,0,0.1,0l12.1,4.5l6.4-6.4
		c0.9-0.9,2.3-1.5,3.6-1.5c1.1,0,2.2,0.4,2.9,1.2c1.8,1.8,1.3,4.8-0.4,6.4l-6.4,6.4l4.5,12.1c0,0,0,0.1,0,0.1l0,0.2
		c0.3,1.2,0.8,2.9-1.1,4.8c-0.5,0.5-1.5,1.5-3,1.5c0,0,0,0,0,0c-1.1,0-2.1-0.5-3.1-1.5c0,0,0,0-0.1-0.1L33.1,37l-4.4,4.5l1.1,4.9
		c0.2,0.8,0.3,1.6-0.6,2.5C28.5,49.6,27.8,50.2,26.9,50.2z M15.8,37.1l6.7,4c0.1,0.1,0.3,0.2,0.4,0.4l4,6.8c0.1,0,0.3-0.2,0.9-0.7
		c0.1-0.1,0.1-0.2,0.1-0.2c0,0-0.1-0.3-0.1-0.5l0-0.2l-1.2-5.2c-0.1-0.3,0-0.7,0.3-0.9l5.6-5.7c0.2-0.2,0.5-0.3,0.8-0.3
		c0.3,0,0.6,0.1,0.7,0.4l7.1,8.7c0.6,0.6,1.2,0.9,1.7,0.9c0.7,0,1.2-0.5,1.6-1c1-1,0.9-1.7,0.6-2.8l0-0.1l-4.7-12.7
		c-0.1-0.4,0-0.8,0.2-1.1l6.8-6.9c0.9-0.9,1.3-2.6,0.4-3.6c-0.5-0.5-1.1-0.6-1.5-0.6c-0.8,0-1.6,0.3-2.1,0.9l-6.9,6.8
		c-0.3,0.3-0.7,0.4-1.1,0.2L23.3,19c-0.4-0.1-0.9-0.2-1.2-0.2c-0.4,0-0.9,0.1-1.6,0.8c-1,1-1.5,1.8,0,3.3l8.7,7.1
		c0.2,0.2,0.4,0.4,0.4,0.7c0,0.3-0.1,0.6-0.3,0.8l-5.7,5.7c-0.3,0.3-0.6,0.4-1,0.3l-5.3-1.3C17.1,36,17,36,16.9,36
		c-0.2,0-0.2,0-0.3,0.2c0,0.1-0.1,0.1-0.2,0.2C15.9,36.8,15.8,37,15.8,37.1z"/>
	<path class="st0" d="M33.1,36.6c-0.3,0-0.5-0.1-0.7-0.3c-0.4-0.4-0.4-1,0-1.4l8-8c0.4-0.4,1-0.4,1.4,0c0.4,0.4,0.4,1,0,1.4l-8,8
		C33.6,36.5,33.4,36.6,33.1,36.6z"/>
	<path class="st0" d="M28.3,32c-0.3,0-0.5-0.1-0.7-0.3c-0.4-0.4-0.4-1,0-1.4l8.1-8.2c0.4-0.4,1-0.4,1.4,0c0.4,0.4,0.4,1,0,1.4
		L29,31.7C28.8,31.9,28.6,32,28.3,32z"/>
</g>
</svg>
