<?xml version="1.0" encoding="utf-8"?>
<!-- Generator: Adobe Illustrator 25.4.1, SVG Export Plug-In . SVG Version: 6.00 Build 0)  -->
<svg version="1.1" id="Layer_1" xmlns="http://www.w3.org/2000/svg" xmlns:xlink="http://www.w3.org/1999/xlink" x="0px" y="0px"
	 viewBox="0 0 64 64" style="enable-background:new 0 0 64 64;" xml:space="preserve">
<style type="text/css">
	.st0{stroke:#000000;stroke-width:0.25;stroke-miterlimit:10;}
	.st1{fill-rule:evenodd;clip-rule:evenodd;}
	.st2{fill:#FFFFFF;}
	.st3{fill:#231F20;}
</style>
<g>
	<g id="Motorcycle_00000131342455187975757880000012931733599561806217_">
		<path id="Vector_4__x28_Stroke_x29__00000152949476047838482230000005753610014675351695_" class="st1" d="M47.4,24.7
			c0.7,0,1.2,0.5,1.2,1.2V42c0,2.4-2,4.4-4.4,4.4H21.7c-0.7,0-1.2-0.5-1.2-1.2c0-0.7,0.5-1.2,1.2-1.2h22.5c1.1,0,2-0.9,2-2V25.9
			C46.2,25.3,46.7,24.7,47.4,24.7z"/>
		<path id="Rectangle_2__x28_Stroke_x29__00000101784089659727121870000001865704883626879106_" class="st1" d="M46.2,38.8
			c0-0.7,0.5-1.2,1.2-1.2h2.1c2,0,3.9,0.5,5.7,1.3c1.9,0.9,3.1,2.8,3.1,4.9v1.3c0,0.7-0.5,1.2-1.2,1.2h-9.6c-0.7,0-1.2-0.5-1.2-1.2
			V38.8z M48.6,40v4h7.2v-0.1c0-1.2-0.7-2.3-1.7-2.8c-1.4-0.7-3-1.1-4.6-1.1H48.6z"/>
		<path id="Rectangle_3__x28_Stroke_x29__00000173144187739935575320000008911009553466172317_" class="st1" d="M20.5,38.8
			c0-5.1,4.1-9.2,9.2-9.2h5.8c1.9,0,3.3,1.9,2.7,3.7L36,39.8c-0.1,0.4-0.1,0.9,0,1.3l1.3,3.8c0.1,0.4,0.1,0.8-0.2,1.1
			c-0.2,0.3-0.6,0.5-1,0.5H21.7c-0.7,0-1.2-0.5-1.2-1.2V38.8z M29.7,32c-3.8,0-6.8,3.1-6.8,6.8V44h11.6l-0.7-2.2
			c-0.3-0.9-0.3-1.9,0-2.8l2.2-6.5c0.1-0.3-0.1-0.5-0.4-0.5H29.7z"/>
		<path id="Rectangle_4__x28_Stroke_x29__00000035496126189814158230000003179319191444404396_" class="st1" d="M46.2,26.7
			c0-2,1.6-3.6,3.6-3.6h2.4c0.7,0,1.2,0.5,1.2,1.2v4.8c0,0.7-0.5,1.2-1.2,1.2h-2.4C47.8,30.4,46.2,28.7,46.2,26.7z M49.8,25.5
			c-0.7,0-1.2,0.5-1.2,1.2s0.5,1.2,1.2,1.2H51v-2.4H49.8z"/>
		<path id="Vector_5__x28_Stroke_x29__00000098907047849550808440000008308733111962153867_" class="st1" d="M43,25.9
			c0-0.7,0.5-1.2,1.2-1.2h3.2c0.7,0,1.2,0.5,1.2,1.2s-0.5,1.2-1.2,1.2h-3.2C43.5,27.1,43,26.6,43,25.9z"/>
		<path id="Vector_6__x28_Stroke_x29__00000023972401040627434560000012276659764394924163_" class="st1" d="M22.1,30.8
			c0-0.7,0.5-1.2,1.2-1.2h15.3c0.7,0,1.2,0.5,1.2,1.2S39.2,32,38.6,32H23.3C22.6,32,22.1,31.4,22.1,30.8z"/>
		<path id="Ellipse_4__x28_Stroke_x29__00000087408687972864674030000009086179319432002210_" class="st1" d="M49,44
			c0.7,0,1.2,0.5,1.2,1.2c0,1.1,0.9,2,2,2s2-0.9,2-2c0-0.7,0.5-1.2,1.2-1.2c0.7,0,1.2,0.5,1.2,1.2c0,2.4-2,4.4-4.4,4.4
			s-4.4-2-4.4-4.4C47.8,44.5,48.3,44,49,44z"/>
		<path id="Ellipse_5__x28_Stroke_x29__00000124128314819941717390000005764014915919253156_" class="st1" d="M24.9,44
			c0.7,0,1.2,0.5,1.2,1.2c0,1.1,0.9,2,2,2s2-0.9,2-2c0-0.7,0.5-1.2,1.2-1.2c0.7,0,1.2,0.5,1.2,1.2c0,2.4-2,4.4-4.4,4.4
			s-4.4-2-4.4-4.4C23.7,44.5,24.3,44,24.9,44z"/>
	</g>
	<g>
		<path d="M38.7,31.9H23.2c-0.6,0-1-0.5-1-1V15.4c0-0.6,0.5-1,1-1h15.5c0.6,0,1,0.5,1,1v15.5C39.7,31.4,39.2,31.9,38.7,31.9z
			 M24.2,29.8h13.4V16.4H24.2V29.8z"/>
	</g>
	<g>
		<path d="M30.9,21.9c-0.6,0-1-0.5-1-1v-5.5c0-0.6,0.5-1,1-1s1,0.5,1,1v5.5C32,21.5,31.5,21.9,30.9,21.9z"/>
	</g>
	<g>
		<g>
			<circle class="st2" cx="17.5" cy="29.3" r="10.7"/>
			<path d="M17.5,41C11,41,5.8,35.7,5.8,29.3S11,17.6,17.5,17.6s11.7,5.2,11.7,11.7S23.9,41,17.5,41z M17.5,19.6
				c-5.3,0-9.6,4.3-9.6,9.6s4.3,9.6,9.6,9.6s9.6-4.3,9.6-9.6S22.8,19.6,17.5,19.6z"/>
		</g>
		<g>
			<g>
				<path class="st3" d="M10.8,33.2c-0.1-0.1-0.1-0.1-0.1-0.2v-0.8c0-0.2,0.1-0.4,0.3-0.5l1-1c0.7-0.5,1.2-0.9,1.6-1.2
					c0.4-0.3,0.6-0.6,0.8-0.8c0.2-0.2,0.3-0.5,0.3-0.7c0-0.5-0.3-0.8-0.8-0.8c-0.3,0-0.5,0.1-0.7,0.3c-0.2,0.2-0.3,0.4-0.3,0.6
					c0,0.2-0.2,0.2-0.4,0.2h-1.4c-0.1,0-0.1,0-0.2-0.1c0,0-0.1-0.1-0.1-0.2c0-0.5,0.1-0.9,0.4-1.3c0.2-0.4,0.6-0.7,1-0.9
					c0.4-0.2,1-0.3,1.5-0.3c0.6,0,1.1,0.1,1.6,0.3c0.4,0.2,0.8,0.5,1,0.8c0.2,0.4,0.3,0.8,0.3,1.2c0,0.5-0.2,1-0.5,1.4
					c-0.3,0.4-0.8,0.9-1.5,1.4l-0.9,0.9h2.7c0.1,0,0.1,0,0.2,0.1c0.1,0.1,0.1,0.1,0.1,0.2V33c0,0.1,0,0.1-0.1,0.2
					c-0.1,0.1-0.1,0.1-0.2,0.1H11C10.9,33.3,10.8,33.3,10.8,33.2z"/>
			</g>
			<g>
				<path class="st3" d="M21.1,33.2C21.1,33.1,21,33.1,21,33v-1.2h-3.4c-0.1,0-0.1,0-0.2-0.1c-0.1-0.1-0.1-0.1-0.1-0.2v-1.1
					c0-0.1,0-0.2,0.1-0.3l3.1-4.2c0.1-0.1,0.2-0.2,0.4-0.2h1.6c0.1,0,0.1,0,0.2,0.1S23,25.9,23,26v4.2h1c0.1,0,0.2,0,0.2,0.1
					c0.1,0.1,0.1,0.1,0.1,0.2v1.1c0,0.1,0,0.1-0.1,0.2c-0.1,0.1-0.1,0.1-0.2,0.1h-1V33c0,0.1,0,0.1-0.1,0.2
					c-0.1,0.1-0.1,0.1-0.2,0.1h-1.4C21.2,33.3,21.2,33.3,21.1,33.2z M19.3,30.2h1.7v-2.4L19.3,30.2z"/>
			</g>
		</g>
	</g>
</g>
</svg>
