<?xml version="1.0" encoding="utf-8"?>
<!-- Generator: Adobe Illustrator 25.4.1, SVG Export Plug-In . SVG Version: 6.00 Build 0)  -->
<svg version="1.1" id="Layer_1" xmlns="http://www.w3.org/2000/svg" xmlns:xlink="http://www.w3.org/1999/xlink" x="0px" y="0px"
	 viewBox="0 0 64 64" style="enable-background:new 0 0 64 64;" xml:space="preserve">
<style type="text/css">
	.st0{stroke:#000000;stroke-width:0.25;stroke-miterlimit:10;}
	.st1{fill-rule:evenodd;clip-rule:evenodd;}
	.st2{fill:#FFFFFF;}
	.st3{fill:#231F20;}
</style>
<path d="M51.7,25.7l-1.3-2.3c-0.8-1.4-2.2-2.3-3.8-2.3h-10l0,0c0-2.5-2.1-4.6-4.6-4.6H13.7c-2.5,0-4.6,2.1-4.6,4.6v17.2
	c0,2.5,2.1,4.6,4.6,4.6h0.1c0.6,3.1,3.7,5.1,6.8,4.5c2.3-0.5,4-2.2,4.5-4.5h14c0.6,3.1,3.7,5.1,6.8,4.5c2.3-0.5,4-2.2,4.5-4.5h0.3
	c2.4,0,4.4-2,4.4-4.4v-5.9c0-0.7-0.2-1.5-0.5-2.1L51.7,25.7z M50.3,28l1.3,2.3l0.6,1.1h-7.6c-0.6,0-1.1-0.5-1.1-1.1v-1.1
	c0-0.6,0.5-1.1,1.1-1.1H50.3z M19.4,45.2c-1.7,0-3.1-1.2-3.4-2.8c0-0.2-0.1-0.4-0.1-0.6c0-1.9,1.5-3.4,3.4-3.4
	c1.9,0,3.4,1.5,3.4,3.4c0,0.2,0,0.4-0.1,0.6C22.5,44,21.1,45.2,19.4,45.2z M25,40.6L25,40.6v-0.1c-0.1-0.3-0.2-0.6-0.3-0.9l-0.2-0.4
	c-0.1-0.2-0.2-0.4-0.3-0.5L24,38.3c-0.1-0.2-0.2-0.3-0.4-0.4c-0.1-0.1-0.2-0.2-0.3-0.3l-0.4-0.4c-0.1-0.1-0.3-0.2-0.4-0.3l-0.5-0.3
	l-0.4-0.2c-0.2-0.1-0.4-0.2-0.7-0.2l-0.3-0.1c-0.7-0.2-1.5-0.2-2.2,0L18,36.2c-0.2,0.1-0.4,0.1-0.7,0.2L17,36.6l-0.5,0.3
	c-0.2,0.1-0.3,0.2-0.5,0.3l-0.4,0.4c-0.1,0.1-0.2,0.2-0.3,0.3c-0.1,0.1-0.3,0.3-0.4,0.4c-0.1,0.1-0.2,0.2-0.3,0.4
	c-0.1,0.2-0.2,0.4-0.3,0.5c0,0.1-0.1,0.2-0.2,0.4c-0.1,0.3-0.2,0.6-0.3,0.9v0.1h-0.1c-1.3,0-2.3-1-2.3-2.3V21.1c0-1.3,1-2.3,2.3-2.3
	H32c1.3,0,2.3,1,2.3,2.3v10.3H17.1c-0.6,0-1.1,0.5-1.1,1.1c0,0.6,0.5,1.1,1.1,1.1h17.2v6.9H25z M44.6,45.2c-1.7,0-3.1-1.2-3.4-2.8
	c0-0.2-0.1-0.4-0.1-0.6c0-1.9,1.5-3.4,3.4-3.4s3.4,1.5,3.4,3.4c0,0.2,0,0.4-0.1,0.6C47.7,44,46.3,45.2,44.6,45.2z M52.6,38.5
	c0,1.1-0.9,2.1-2.1,2.1h-0.3v-0.1c-0.1-0.3-0.2-0.6-0.3-0.9l-0.2-0.4c-0.1-0.2-0.2-0.4-0.3-0.5c-0.1-0.1-0.2-0.3-0.3-0.4
	c-0.1-0.2-0.2-0.3-0.4-0.4c-0.1-0.1-0.2-0.2-0.3-0.3L48,37.2c-0.1-0.1-0.3-0.2-0.4-0.3l-0.5-0.3l-0.4-0.2c-0.2-0.1-0.4-0.2-0.7-0.2
	l-0.3-0.1c-0.7-0.2-1.5-0.2-2.2,0l-0.4,0.1c-0.2,0.1-0.4,0.1-0.7,0.2l-0.4,0.2l-0.5,0.3c-0.2,0.1-0.3,0.2-0.5,0.3l-0.4,0.4
	c-0.1,0.1-0.2,0.2-0.3,0.3c-0.1,0.1-0.3,0.3-0.4,0.4l-0.3,0.4c-0.1,0.2-0.2,0.4-0.3,0.5l-0.2,0.4c-0.1,0.3-0.2,0.6-0.3,0.9v0.1h-2.4
	V23.4h10c0.8,0,1.5,0.4,1.8,1.1l0.7,1.2h-4.5c-1.9,0-3.4,1.5-3.4,3.4v1.1c0,1.9,1.5,3.4,3.4,3.4h8V38.5z"/>
</svg>
