<?xml version="1.0" encoding="utf-8"?>
<!-- Generator: Adobe Illustrator 25.4.1, SVG Export Plug-In . SVG Version: 6.00 Build 0)  -->
<svg version="1.1" id="Layer_1" xmlns="http://www.w3.org/2000/svg" xmlns:xlink="http://www.w3.org/1999/xlink" x="0px" y="0px"
	 viewBox="0 0 64 64" style="enable-background:new 0 0 64 64;" xml:space="preserve">
<style type="text/css">
	.st0{stroke:#000000;stroke-width:0.25;stroke-miterlimit:10;}
	.st1{fill-rule:evenodd;clip-rule:evenodd;}
	.st2{fill:#FFFFFF;}
	.st3{fill:#231F20;}
</style>
<g>
	<path d="M41.5,43.1h-6.9c-0.6,0-1.1-0.5-1.1-1.1c0-0.6,0.5-1.1,1.1-1.1h6.9c0.6,0,1.1,0.5,1.1,1.1C42.7,42.6,42.2,43.1,41.5,43.1z"
		/>
	<path d="M46.1,48H17.9c-0.6,0-1.1-0.5-1.1-1.1V22.2c0-0.6,0.5-1.1,1.1-1.1h28.2c0.6,0,1.1,0.5,1.1,1.1v24.7
		C47.2,47.5,46.7,48,46.1,48z M19,45.7H45V23.3H19L19,45.7z"/>
	<path d="M46.1,23.3H17.9c-0.6,0-1.1-0.5-1.1-1.1c0-0.3,0.1-0.5,0.2-0.7l3.8-5c0.2-0.3,0.6-0.5,0.9-0.5h20.6c0.4,0,0.7,0.2,0.9,0.5
		l3.8,5c0.4,0.5,0.3,1.2-0.2,1.6C46.6,23.2,46.4,23.3,46.1,23.3z M20.2,21.1h23.7l-2.1-2.8H22.2L20.2,21.1z"/>
</g>
</svg>
